<svg xmlns="http://www.w3.org/2000/svg" xmlns:xlink="http://www.w3.org/1999/xlink" viewBox="0 0 1818.28 776.3"><defs><style>.cls-1{fill:url(#Gold);}.cls-2{fill:url(#Gold-2);}.cls-3{fill:url(#Gold-3);}.cls-4{fill:url(#linear-gradient);}.cls-5{fill:url(#linear-gradient-2);}.cls-6{fill:url(#linear-gradient-3);}.cls-7{fill:url(#linear-gradient-4);}.cls-8{fill:url(#linear-gradient-5);}.cls-9{fill:url(#linear-gradient-6);}</style><linearGradient id="Gold" x1="998.24" y1="438.8" x2="1310.21" y2="438.8" gradientUnits="userSpaceOnUse"><stop offset="0.01" stop-color="#fbc926"/><stop offset="0.25" stop-color="#fffbcc"/><stop offset="0.3" stop-color="#f8f0bb"/><stop offset="0.41" stop-color="#e7d28e"/><stop offset="0.55" stop-color="#cca246"/><stop offset="0.6" stop-color="#c3922e"/><stop offset="0.87" stop-color="#eed688"/><stop offset="1" stop-color="#fffbcc"/></linearGradient><linearGradient id="Gold-2" x1="1135.45" y1="218.4" x2="1179.26" y2="218.4" xlink:href="#Gold"/><linearGradient id="Gold-3" x1="962.08" y1="438.64" x2="1818.28" y2="438.64" xlink:href="#Gold"/><linearGradient id="linear-gradient" x1="1022.87" y1="161.75" x2="901.3" y2="283.32" gradientUnits="userSpaceOnUse"><stop offset="0.01" stop-color="#fbc926"/><stop offset="0.22" stop-color="#fffbcc"/><stop offset="0.27" stop-color="#f8f0bb"/><stop offset="0.35" stop-color="#e7d28e"/><stop offset="0.47" stop-color="#cca246"/><stop offset="0.49" stop-color="#c69837"/><stop offset="0.69" stop-color="#fffbcc"/><stop offset="0.74" stop-color="#fbf2bb"/><stop offset="0.86" stop-color="#f0d98e"/><stop offset="0.87" stop-color="#eed688"/><stop offset="1" stop-color="#fffbcc"/></linearGradient><linearGradient id="linear-gradient-2" x1="782.35" y1="-78.77" x2="270.29" y2="433.29" xlink:href="#linear-gradient"/><linearGradient id="linear-gradient-3" x1="827.61" y1="398.72" x2="225.01" y2="1001.32" xlink:href="#linear-gradient"/><linearGradient id="linear-gradient-4" x1="373.8" y1="262.71" x2="22.05" y2="614.45" xlink:href="#linear-gradient"/><linearGradient id="linear-gradient-5" x1="523.72" y1="233.83" x2="462.86" y2="294.7" xlink:href="#linear-gradient"/><linearGradient id="linear-gradient-6" x1="872.12" y1="287.93" x2="570.76" y2="589.28" xlink:href="#linear-gradient"/></defs><title>1Asset 1</title><g id="Layer_2" data-name="Layer 2"><g id="Layer_1-2" data-name="Layer 1"><path class="cls-1" d="M1297.76,377.94a171.07,171.07,0,0,0-33.41-49.83,164,164,0,0,0-49.83-32.84,159.56,159.56,0,0,0-120.88,0,151.73,151.73,0,0,0-49.54,32.84,165.49,165.49,0,0,0-33.4,49.83c-8.5,19-12.46,38.78-12.46,60.3,0,21.23,4,41.33,12.46,60.3a158.78,158.78,0,0,0,33.4,49.82c30.58,30.58,67.38,45.86,110.12,45.86a147.72,147.72,0,0,0,60-12.17,151.59,151.59,0,0,0,49.54-33.4,160.27,160.27,0,0,0,34-50.11c8.49-19,12.45-39.07,12.45-60.3C1310.21,416.72,1306.25,396.91,1297.76,377.94Zm0,0a171.07,171.07,0,0,0-33.41-49.83,164,164,0,0,0-49.83-32.84,159.56,159.56,0,0,0-120.88,0,151.73,151.73,0,0,0-49.54,32.84,165.49,165.49,0,0,0-33.4,49.83c-8.5,19-12.46,38.78-12.46,60.3,0,21.23,4,41.33,12.46,60.3a158.78,158.78,0,0,0,33.4,49.82c30.58,30.58,67.38,45.86,110.12,45.86a147.72,147.72,0,0,0,60-12.17,151.59,151.59,0,0,0,49.54-33.4,160.27,160.27,0,0,0,34-50.11c8.49-19,12.45-39.07,12.45-60.3C1310.21,416.72,1306.25,396.91,1297.76,377.94Zm0,0a171.07,171.07,0,0,0-33.41-49.83,164,164,0,0,0-49.83-32.84,159.56,159.56,0,0,0-120.88,0,151.73,151.73,0,0,0-49.54,32.84,165.49,165.49,0,0,0-33.4,49.83c-8.5,19-12.46,38.78-12.46,60.3,0,21.23,4,41.33,12.46,60.3a158.78,158.78,0,0,0,33.4,49.82c30.58,30.58,67.38,45.86,110.12,45.86a147.72,147.72,0,0,0,60-12.17,151.59,151.59,0,0,0,49.54-33.4,160.27,160.27,0,0,0,34-50.11c8.49-19,12.45-39.07,12.45-60.3C1310.21,416.72,1306.25,396.91,1297.76,377.94Zm0,0a171.07,171.07,0,0,0-33.41-49.83,164,164,0,0,0-49.83-32.84,159.56,159.56,0,0,0-120.88,0,151.73,151.73,0,0,0-49.54,32.84,165.49,165.49,0,0,0-33.4,49.83c-8.5,19-12.46,38.78-12.46,60.3,0,21.23,4,41.33,12.46,60.3a158.78,158.78,0,0,0,33.4,49.82c30.58,30.58,67.38,45.86,110.12,45.86a147.72,147.72,0,0,0,60-12.17,151.59,151.59,0,0,0,49.54-33.4,160.27,160.27,0,0,0,34-50.11c8.49-19,12.45-39.07,12.45-60.3C1310.21,416.72,1306.25,396.91,1297.76,377.94Zm0,0a171.07,171.07,0,0,0-33.41-49.83,164,164,0,0,0-49.83-32.84,159.56,159.56,0,0,0-120.88,0,151.73,151.73,0,0,0-49.54,32.84,165.49,165.49,0,0,0-33.4,49.83c-8.5,19-12.46,38.78-12.46,60.3,0,21.23,4,41.33,12.46,60.3a158.78,158.78,0,0,0,33.4,49.82c30.58,30.58,67.38,45.86,110.12,45.86a147.72,147.72,0,0,0,60-12.17,151.59,151.59,0,0,0,49.54-33.4,160.27,160.27,0,0,0,34-50.11c8.49-19,12.45-39.07,12.45-60.3C1310.21,416.72,1306.25,396.91,1297.76,377.94Zm0,0a171.07,171.07,0,0,0-33.41-49.83,164,164,0,0,0-49.83-32.84,159.56,159.56,0,0,0-120.88,0,151.73,151.73,0,0,0-49.54,32.84,165.49,165.49,0,0,0-33.4,49.83c-8.5,19-12.46,38.78-12.46,60.3,0,21.23,4,41.33,12.46,60.3a158.78,158.78,0,0,0,33.4,49.82c30.58,30.58,67.38,45.86,110.12,45.86a147.72,147.72,0,0,0,60-12.17,151.59,151.59,0,0,0,49.54-33.4,160.27,160.27,0,0,0,34-50.11c8.49-19,12.45-39.07,12.45-60.3C1310.21,416.72,1306.25,396.91,1297.76,377.94Z"/><path class="cls-2" d="M1154.22,225.07q-9.53,0-18.77.77l21.45-15.55,22.36,16.21A217.59,217.59,0,0,0,1154.22,225.07Z"/><path class="cls-3" d="M962.09,101V344.09h0v.57a213.51,213.51,0,0,1,40.69-56.75A220.41,220.41,0,0,1,1066,244l-20.61-104.11,88.15,64.68-7.19,5.42-67.74-51,18.1,77.2h30.38L1118.3,228l31.19-23.05-49-35.51,1-.91-.42-.3,56.37-55.53L1215.18,168l-1.21.88.68.67-40.29,29.51-1.08-.68-9,6.5,33.22,24.54,11.08,8.19H1239l18.1-77.21-67.74,51-7.19-5.41,88.15-64.68-20.65,104.3h-4.41a218.14,218.14,0,0,1,60.42,42.6,224.24,224.24,0,0,1,45,67.66,207,207,0,0,1,16.71,82.38,211.17,211.17,0,0,1-16.71,83.23,222.13,222.13,0,0,1-45,67.94,219.31,219.31,0,0,1-68.79,46.15,204.87,204.87,0,0,1-82.67,17q-44.58,0-83.23-17A217.63,217.63,0,0,1,962.08,533V776.3h856.2V101Zm614.4,348.59v203h-58.32v-203L1313.78,225.07h78.7l154.29,171,155.42-171h77.56Z"/><rect class="cls-4" x="962.08" y="100.97" width="0.01" height="243.12"/><polygon class="cls-5" points="962.09 100.97 962.09 344.09 847 344.09 847 337.17 853.99 287.68 871.85 287.66 888.36 287.64 915.45 287.64 915.45 163.01 0.01 163.01 0.01 100.97 962.09 100.97"/><polygon class="cls-6" points="962.08 533.18 962.08 776.3 0 776.3 0 714.27 915.44 714.27 915.44 589.63 858.93 589.63 846.98 540.1 846.98 533.18 962.08 533.18"/><path class="cls-7" d="M60,652.39V224.91H254.75a191.26,191.26,0,0,1,75.87,15.29,194.25,194.25,0,0,1,62.57,41.9,197,197,0,0,1,42.18,62.28q15.28,35.25,15.29,76.43v35.68a195.1,195.1,0,0,1-57.47,138.43,195.16,195.16,0,0,1-62.57,42.18,191.26,191.26,0,0,1-75.87,15.29Zm248-69.08a152.62,152.62,0,0,0,44.16-29.44c26.89-26.89,40.2-59.45,40.2-97.38V420.81c0-38.21-13.31-70.49-40.2-97.38s-59.45-40.2-97.39-40.2H116.89V594.07H254.75A133.41,133.41,0,0,0,308,583.31Z"/><path class="cls-8" d="M509.43,219.53l-1.7,118.34L450,281.81V219.53Z"/><path class="cls-9" d="M638.41,635.4a211.17,211.17,0,0,1-67.66-46.14,217.86,217.86,0,0,1-45.3-68c-11.32-26-16.7-53.78-16.7-83.23,0-29.16,5.38-56.61,16.7-82.38a224.6,224.6,0,0,1,45.3-67.94,216,216,0,0,1,67.66-46.15,211.46,211.46,0,0,1,83.51-16.7A220.06,220.06,0,0,1,810.24,243c28,13.59,54.36,34.54,78.71,63.13l-41.9,37.94c-36.24-40.77-78.14-60.87-125.13-60.87a152.69,152.69,0,0,0-60.3,11.89A164,164,0,0,0,611.79,328a172,172,0,0,0-33.68,49.82,153.52,153.52,0,0,0,0,121.17,160.62,160.62,0,0,0,33.68,49.26,156.6,156.6,0,0,0,49.83,33.69c18.68,8.21,38.78,12.17,60.3,12.17,23.5,0,44.73-4.53,64-13.87,20.66-9.06,41.05-24.91,61.15-47L889,571.14c-24.35,28.87-50.68,49.54-78.71,61.71a203.4,203.4,0,0,1-88.32,19.54C692.19,652.39,664.45,646.73,638.41,635.4Z"/><text/><text/><text/></g></g></svg>