<svg width="44" height="44" viewBox="0 0 44 44" fill="none" xmlns="http://www.w3.org/2000/svg">
<path d="M0.416016 22.0808C0.416016 10.179 10.0643 0.530762 21.966 0.530762C33.8677 0.530762 43.516 10.179 43.516 22.0808C43.516 33.9825 33.8677 43.6308 21.966 43.6308C10.0643 43.6308 0.416016 33.9825 0.416016 22.0808Z" fill="#FFC13C"/>
<g clip-path="url(#clip0_608_11813)">
<path d="M26.4555 30.162V28.3662C26.4555 27.4136 26.0771 26.5001 25.4036 25.8265C24.73 25.1529 23.8164 24.7745 22.8639 24.7745H15.6805C14.728 24.7745 13.8144 25.1529 13.1408 25.8265C12.4673 26.5001 12.0889 27.4136 12.0889 28.3662V30.162M31.843 30.162V28.3662C31.8424 27.5704 31.5776 26.7973 31.09 26.1684C30.6025 25.5394 29.9198 25.0902 29.1493 24.8912M25.5576 14.1162C26.3302 14.3141 27.015 14.7634 27.504 15.3934C27.993 16.0233 28.2584 16.7982 28.2584 17.5957C28.2584 18.3932 27.993 19.168 27.504 19.798C27.015 20.428 26.3302 20.8773 25.5576 21.0751M22.8639 17.5912C22.8639 19.5748 21.2558 21.1828 19.2722 21.1828C17.2886 21.1828 15.6805 19.5748 15.6805 17.5912C15.6805 15.6076 17.2886 13.9995 19.2722 13.9995C21.2558 13.9995 22.8639 15.6076 22.8639 17.5912Z" stroke="#7D2899" stroke-width="1.79583" stroke-linecap="round" stroke-linejoin="round"/>
</g>
<defs>
<clipPath id="clip0_608_11813">
<rect width="21.55" height="21.55" fill="white" transform="translate(11.1914 11.3057)"/>
</clipPath>
</defs>
</svg>
