<svg width="45" height="44" viewBox="0 0 45 44" fill="none" xmlns="http://www.w3.org/2000/svg">
<path d="M0.949219 22.0808C0.949219 10.179 10.5975 0.530762 22.4992 0.530762C34.401 0.530762 44.0492 10.179 44.0492 22.0808C44.0492 33.9825 34.401 43.6308 22.4992 43.6308C10.5975 43.6308 0.949219 33.9825 0.949219 22.0808Z" fill="#FFC13C"/>
<path d="M30.4372 15.4453C29.9786 14.9865 29.4341 14.6225 28.8347 14.3742C28.2354 14.1259 27.593 13.998 26.9443 13.998C26.2956 13.998 25.6532 14.1259 25.0539 14.3742C24.4546 14.6225 23.91 14.9865 23.4514 15.4453L22.4996 16.3971L21.5478 15.4453C20.6215 14.519 19.365 13.9985 18.0549 13.9985C16.7448 13.9985 15.4884 14.519 14.562 15.4453C13.6357 16.3717 13.1152 17.6281 13.1152 18.9382C13.1152 20.2483 13.6357 21.5047 14.562 22.4311L15.5138 23.3829L22.4996 30.3687L29.4854 23.3829L30.4372 22.4311C30.896 21.9725 31.26 21.428 31.5083 20.8287C31.7567 20.2293 31.8845 19.587 31.8845 18.9382C31.8845 18.2895 31.7567 17.6471 31.5083 17.0478C31.26 16.4485 30.896 15.9039 30.4372 15.4453V15.4453Z" stroke="#7D2899" stroke-width="1.79583" stroke-linecap="round" stroke-linejoin="round"/>
</svg>
