<svg width="44" height="44" viewBox="0 0 44 44" fill="none" xmlns="http://www.w3.org/2000/svg">
<path d="M0.182617 21.789C0.182617 9.88728 9.83088 0.239014 21.7326 0.239014C33.6343 0.239014 43.2826 9.88728 43.2826 21.789C43.2826 33.6907 33.6343 43.339 21.7326 43.339C9.83088 43.339 0.182617 33.6907 0.182617 21.789Z" fill="#FFC13C"/>
<g clip-path="url(#clip0_608_11833)">
<path d="M14.5498 24.4827C14.5498 24.4827 15.4477 23.5848 18.1415 23.5848C20.8352 23.5848 22.6311 25.3806 25.3248 25.3806C28.0186 25.3806 28.9165 24.4827 28.9165 24.4827V13.7077C28.9165 13.7077 28.0186 14.6056 25.3248 14.6056C22.6311 14.6056 20.8352 12.8098 18.1415 12.8098C15.4477 12.8098 14.5498 13.7077 14.5498 13.7077V24.4827ZM14.5498 24.4827V30.7681" stroke="#7D2899" stroke-width="1.79583" stroke-linecap="round" stroke-linejoin="round"/>
</g>
<defs>
<clipPath id="clip0_608_11833">
<rect width="21.55" height="21.55" fill="white" transform="translate(10.958 11.0139)"/>
</clipPath>
</defs>
</svg>
