<svg width="120" height="62" viewBox="0 0 120 62" fill="none" xmlns="http://www.w3.org/2000/svg">
<rect x="5" y="5" width="29" height="10" fill="#C6008E"/>
<path d="M5 32C5 23.7158 11.7158 17 20 17.0001L34 17.0001V25H21.5C16.8056 25 13 28.8056 13 33.5V35.5V45H5V32Z" fill="#7D2899"/>
<rect x="5" y="47" width="8" height="8" fill="#FFC13C"/>
<path d="M41.3 24C40.98 24 40.82 23.8733 40.82 23.62V23.54C40.82 23.38 40.9533 23.14 41.22 22.82C41.4867 22.4867 41.62 22.1533 41.62 21.82V11.98C41.62 11.6467 41.4867 11.32 41.22 11C40.9533 10.6667 40.82 10.42 40.82 10.26V10.18C40.82 9.92667 40.9733 9.8 41.28 9.8H50.68C50.8933 9.8 51.0467 9.85333 51.14 9.96C51.2467 10.0533 51.32 10.2133 51.36 10.44L51.84 12.96C51.8667 13.1333 51.8333 13.2733 51.74 13.38C51.6467 13.4867 51.5133 13.54 51.34 13.54H51.24C50.9867 13.54 50.7267 13.42 50.46 13.18C50.2067 12.9267 49.98 12.66 49.78 12.38C49.5933 12.0867 49.3467 11.82 49.04 11.58C48.7467 11.3267 48.44 11.2 48.12 11.2H46.2C45.5867 11.2 45.28 11.52 45.28 12.16V16.64H47.52C47.7333 16.64 47.9267 16.56 48.1 16.4C48.2867 16.2267 48.4333 16.04 48.54 15.84C48.6467 15.6267 48.7667 15.44 48.9 15.28C49.0467 15.1067 49.18 15.02 49.3 15.02H49.48C49.7333 15.02 49.86 15.1733 49.86 15.48V19.08C49.86 19.3867 49.7333 19.54 49.48 19.54H49.3C49.14 19.54 48.9733 19.42 48.8 19.18C48.64 18.9267 48.4533 18.6733 48.24 18.42C48.0267 18.1667 47.7867 18.04 47.52 18.04H45.28V21.82C45.28 22.1533 45.4267 22.4867 45.72 22.82C46.0267 23.14 46.18 23.38 46.18 23.54V23.62C46.18 23.8733 46.02 24 45.7 24H41.3ZM61.0156 21.82C61.0556 22.14 61.129 22.4 61.2356 22.6C61.3556 22.7867 61.469 22.9067 61.5756 22.96C61.6956 23.0133 61.8023 23.08 61.8956 23.16C61.989 23.24 62.0356 23.34 62.0356 23.46C62.0356 23.9 61.2823 24.12 59.7756 24.12C59.1623 24.12 58.7023 24.0467 58.3956 23.9C58.1023 23.7533 57.9156 23.5067 57.8356 23.16C57.329 23.8533 56.4823 24.2 55.2956 24.2C54.1756 24.2 53.2623 23.94 52.5556 23.42C51.8623 22.9 51.5156 22.1467 51.5156 21.16C51.5156 20.2 51.8623 19.4533 52.5556 18.92C53.249 18.3733 54.1023 18.1 55.1156 18.1C55.9023 18.1 56.5756 18.2667 57.1356 18.6V18.54C57.0023 17.22 56.849 16.3267 56.6756 15.86C56.5156 15.3933 56.1956 15.16 55.7156 15.16C55.409 15.16 55.1623 15.3 54.9756 15.58C54.789 15.86 54.649 16.1667 54.5556 16.5C54.4756 16.8333 54.3156 17.14 54.0756 17.42C53.8356 17.7 53.5156 17.84 53.1156 17.84C52.7023 17.84 52.3623 17.72 52.0956 17.48C51.8423 17.24 51.7156 16.9267 51.7156 16.54C51.7156 15.7667 52.1023 15.1867 52.8756 14.8C53.649 14.4 54.5956 14.2 55.7156 14.2C57.049 14.2 58.149 14.5667 59.0156 15.3C59.8956 16.02 60.4156 17 60.5756 18.24L61.0156 21.82ZM56.3956 23.18C56.7023 23.18 56.949 23.0333 57.1356 22.74C57.3356 22.4467 57.4356 22.1133 57.4356 21.74L57.3556 20.82C57.2223 19.7133 56.809 19.16 56.1156 19.16C55.809 19.16 55.5623 19.2867 55.3756 19.54C55.189 19.78 55.0956 20.1067 55.0956 20.52C55.0956 21.2667 55.209 21.9 55.4356 22.42C55.6756 22.9267 55.9956 23.18 56.3956 23.18ZM72.515 21.82C72.515 22.1533 72.6483 22.4867 72.915 22.82C73.1817 23.14 73.315 23.38 73.315 23.54V23.62C73.315 23.8733 73.1617 24 72.855 24H69.995C69.6483 24 69.475 23.8333 69.475 23.5V23.32C68.8483 23.9067 68.035 24.2 67.035 24.2C65.7417 24.2 64.6283 23.76 63.695 22.88C62.775 21.9867 62.315 20.76 62.315 19.2C62.315 17.7467 62.7817 16.5533 63.715 15.62C64.6483 14.6733 65.7617 14.2 67.055 14.2C67.8683 14.2 68.555 14.3867 69.115 14.76V12.1C69.115 11.8333 69.0283 11.6067 68.855 11.42C68.6817 11.22 68.5017 11.0533 68.315 10.92C68.1417 10.7733 68.055 10.62 68.055 10.46V10.4C68.055 10.1467 68.2083 9.97333 68.515 9.88L71.635 8.94C72.2217 8.75333 72.515 8.91333 72.515 9.42V21.82ZM67.835 23.22C68.195 23.2333 68.495 23.0867 68.735 22.78C68.9883 22.4733 69.115 22.06 69.115 21.54V17.68C69.115 17.04 68.9283 16.4667 68.555 15.96C68.195 15.44 67.7817 15.18 67.315 15.18C66.3283 15.18 65.8017 16 65.735 17.64C65.7083 18.2667 65.7617 18.9933 65.895 19.82C66.0417 20.6467 66.2817 21.42 66.615 22.14C66.9617 22.8467 67.3683 23.2067 67.835 23.22ZM76.8519 13.22C76.1719 13.22 75.6185 13.0333 75.1919 12.66C74.7652 12.2733 74.5519 11.7933 74.5519 11.22C74.5519 10.6467 74.7652 10.1733 75.1919 9.8C75.6185 9.41333 76.1719 9.22 76.8519 9.22C77.5185 9.22 78.0652 9.41333 78.4919 9.8C78.9185 10.1733 79.1319 10.6467 79.1319 11.22C79.1319 11.7933 78.9185 12.2733 78.4919 12.66C78.0652 13.0333 77.5185 13.22 76.8519 13.22ZM74.7119 24C74.3919 24 74.2319 23.8733 74.2319 23.62V23.54C74.2319 23.38 74.3652 23.1333 74.6319 22.8C74.8985 22.4667 75.0319 22.1333 75.0319 21.8V18C75.0319 17.6533 74.8985 17.32 74.6319 17C74.3652 16.6667 74.2319 16.44 74.2319 16.32V16.24C74.2319 16.08 74.3852 15.9267 74.6919 15.78L77.7119 14.3C77.9919 14.18 78.2119 14.1667 78.3719 14.26C78.5319 14.3533 78.6119 14.5067 78.6119 14.72V21.8C78.6119 22.1333 78.7585 22.4667 79.0519 22.8C79.3585 23.1333 79.5119 23.38 79.5119 23.54V23.62C79.5119 23.8733 79.3452 24 79.0119 24H74.7119ZM89.8633 21.82C89.9033 22.14 89.9766 22.4 90.0833 22.6C90.2033 22.7867 90.3166 22.9067 90.4233 22.96C90.5433 23.0133 90.6499 23.08 90.7433 23.16C90.8366 23.24 90.8833 23.34 90.8833 23.46C90.8833 23.9 90.1299 24.12 88.6233 24.12C88.0099 24.12 87.5499 24.0467 87.2433 23.9C86.9499 23.7533 86.7633 23.5067 86.6833 23.16C86.1766 23.8533 85.3299 24.2 84.1433 24.2C83.0233 24.2 82.1099 23.94 81.4033 23.42C80.7099 22.9 80.3633 22.1467 80.3633 21.16C80.3633 20.2 80.7099 19.4533 81.4033 18.92C82.0966 18.3733 82.9499 18.1 83.9633 18.1C84.7499 18.1 85.4233 18.2667 85.9833 18.6V18.54C85.8499 17.22 85.6966 16.3267 85.5233 15.86C85.3633 15.3933 85.0433 15.16 84.5633 15.16C84.2566 15.16 84.0099 15.3 83.8233 15.58C83.6366 15.86 83.4966 16.1667 83.4033 16.5C83.3233 16.8333 83.1633 17.14 82.9233 17.42C82.6833 17.7 82.3633 17.84 81.9633 17.84C81.5499 17.84 81.2099 17.72 80.9433 17.48C80.6899 17.24 80.5633 16.9267 80.5633 16.54C80.5633 15.7667 80.9499 15.1867 81.7233 14.8C82.4966 14.4 83.4433 14.2 84.5633 14.2C85.8966 14.2 86.9966 14.5667 87.8633 15.3C88.7433 16.02 89.2633 17 89.4233 18.24L89.8633 21.82ZM85.2433 23.18C85.5499 23.18 85.7966 23.0333 85.9833 22.74C86.1833 22.4467 86.2833 22.1133 86.2833 21.74L86.2033 20.82C86.0699 19.7133 85.6566 19.16 84.9633 19.16C84.6566 19.16 84.4099 19.2867 84.2233 19.54C84.0366 19.78 83.9433 20.1067 83.9433 20.52C83.9433 21.2667 84.0566 21.9 84.2833 22.42C84.5233 22.9267 84.8433 23.18 85.2433 23.18ZM102.239 21.82C102.266 22.1533 102.392 22.4867 102.619 22.82C102.846 23.14 102.959 23.3867 102.959 23.56V23.64C102.959 23.8933 102.799 24.02 102.479 24.02H98.4789C98.1589 24.02 97.9989 23.8933 97.9989 23.64V23.56C97.9989 23.4 98.1256 23.1533 98.3789 22.82C98.6322 22.4867 98.7456 22.1533 98.7189 21.82L98.5189 18.24C98.4656 17.2533 98.3322 16.5533 98.1189 16.14C97.9189 15.7267 97.5922 15.52 97.1389 15.52C96.7122 15.52 96.3856 15.6933 96.1589 16.04C95.9456 16.3867 95.8389 16.86 95.8389 17.46V21.82C95.8389 22.1533 95.9856 22.4867 96.2789 22.82C96.5722 23.1533 96.7189 23.4 96.7189 23.56V23.64C96.7189 23.8933 96.5589 24.02 96.2389 24.02H91.9189C91.5989 24.02 91.4389 23.8933 91.4389 23.64V23.56C91.4389 23.4 91.5856 23.1533 91.8789 22.82C92.1722 22.4867 92.3189 22.1533 92.3189 21.82V17.88C92.3189 17.6 92.2322 17.3667 92.0589 17.18C91.8856 16.98 91.7056 16.8133 91.5189 16.68C91.3456 16.5333 91.2589 16.38 91.2589 16.22V16.16C91.2589 15.9867 91.4189 15.82 91.7389 15.66L94.5389 14.28C94.7922 14.1733 94.9789 14.1733 95.0989 14.28C95.2322 14.3733 95.2989 14.5333 95.2989 14.76V15.7C95.8589 14.7 96.8122 14.2 98.1589 14.2C99.1589 14.2 100.019 14.5267 100.739 15.18C101.459 15.8333 101.872 16.8933 101.979 18.36L102.239 21.82Z" fill="#C6008E"/>
<path d="M40.3 50C39.98 50 39.82 49.8733 39.82 49.62V49.54C39.82 49.38 39.9533 49.14 40.22 48.82C40.4867 48.4867 40.62 48.1533 40.62 47.82V37.98C40.62 37.6467 40.4867 37.32 40.22 37C39.9533 36.6667 39.82 36.42 39.82 36.26V36.18C39.82 35.9267 39.98 35.8 40.3 35.8H45.02C47.8067 35.8 49.9733 36.46 51.52 37.78C53.08 39.1 53.86 40.8333 53.86 42.98C53.86 45.0733 53.14 46.7667 51.7 48.06C50.2733 49.3533 48.38 50 46.02 50H40.3ZM45.94 48.6H46.74C47.7267 48.6 48.5267 48.26 49.14 47.58C49.7533 46.9 50.06 45.9267 50.06 44.66C50.06 43.3667 49.86 42.1533 49.46 41.02C49.06 39.8733 48.4933 38.9533 47.76 38.26C47.0267 37.5533 46.2133 37.2 45.32 37.2H45.1C44.5 37.2 44.2 37.52 44.2 38.16V46.54C44.2 47.1933 44.3533 47.7 44.66 48.06C44.9667 48.42 45.3933 48.6 45.94 48.6ZM57.5511 39.22C56.8711 39.22 56.3178 39.0333 55.8911 38.66C55.4644 38.2733 55.2511 37.7933 55.2511 37.22C55.2511 36.6467 55.4644 36.1733 55.8911 35.8C56.3178 35.4133 56.8711 35.22 57.5511 35.22C58.2178 35.22 58.7644 35.4133 59.1911 35.8C59.6178 36.1733 59.8311 36.6467 59.8311 37.22C59.8311 37.7933 59.6178 38.2733 59.1911 38.66C58.7644 39.0333 58.2178 39.22 57.5511 39.22ZM55.4111 50C55.0911 50 54.9311 49.8733 54.9311 49.62V49.54C54.9311 49.38 55.0644 49.1333 55.3311 48.8C55.5978 48.4667 55.7311 48.1333 55.7311 47.8V44C55.7311 43.6533 55.5978 43.32 55.3311 43C55.0644 42.6667 54.9311 42.44 54.9311 42.32V42.24C54.9311 42.08 55.0844 41.9267 55.3911 41.78L58.4111 40.3C58.6911 40.18 58.9111 40.1667 59.0711 40.26C59.2311 40.3533 59.3111 40.5067 59.3111 40.72V47.8C59.3111 48.1333 59.4578 48.4667 59.7511 48.8C60.0578 49.1333 60.2111 49.38 60.2111 49.54V49.62C60.2111 49.8733 60.0444 50 59.7111 50H55.4111ZM69.8425 40.4C70.4692 40.4 70.8758 40.4533 71.0625 40.56C71.2492 40.6533 71.3292 40.82 71.3025 41.06C71.2892 41.2467 71.2225 41.4 71.1025 41.52C70.9958 41.6267 70.8825 41.7 70.7625 41.74C70.6558 41.7667 70.4892 41.8067 70.2625 41.86C70.0492 41.9 69.8958 41.9333 69.8025 41.96C70.4558 42.7067 70.7825 43.5333 70.7825 44.44C70.7825 46 70.0625 47.1467 68.6225 47.88C69.4758 48.0667 70.0825 48.34 70.4425 48.7C70.8025 49.0467 70.9825 49.4867 70.9825 50.02C70.9825 50.8067 70.4825 51.4467 69.4825 51.94C68.4825 52.4467 67.2425 52.7 65.7625 52.7C64.3092 52.7 63.1558 52.4733 62.3025 52.02C61.4625 51.5667 61.0425 50.92 61.0425 50.08C61.0425 49.7333 61.1625 49.4267 61.4025 49.16C61.6425 48.8933 61.9825 48.76 62.4225 48.76C62.8225 48.76 63.1625 48.9133 63.4425 49.22C63.7358 49.5267 63.9492 49.8667 64.0825 50.24C64.2292 50.6133 64.4425 50.9533 64.7225 51.26C65.0158 51.58 65.3692 51.74 65.7825 51.74C66.3025 51.7533 66.7092 51.6 67.0025 51.28C67.2958 50.9733 67.4425 50.5667 67.4425 50.06C67.4425 49.14 67.1625 48.6 66.6025 48.44C66.3092 48.4667 66.0692 48.48 65.8825 48.48C64.4692 48.48 63.3025 48.1067 62.3825 47.36C61.4758 46.6133 61.0225 45.6467 61.0225 44.46C61.0225 43.1933 61.4758 42.1667 62.3825 41.38C63.3025 40.5933 64.4825 40.2 65.9225 40.2C66.2958 40.2 66.8825 40.2333 67.6825 40.3C68.4825 40.3667 69.2025 40.4 69.8425 40.4ZM64.3625 42.86C64.3625 43.9133 64.5692 44.9467 64.9825 45.96C65.3958 46.9733 65.8625 47.48 66.3825 47.48C66.7158 47.48 66.9758 47.3333 67.1625 47.04C67.3625 46.7333 67.4625 46.32 67.4625 45.8C67.4625 44.8533 67.2558 43.8467 66.8425 42.78C66.4292 41.7133 65.9492 41.18 65.4025 41.18C65.0825 41.18 64.8292 41.3267 64.6425 41.62C64.4558 41.9133 64.3625 42.3267 64.3625 42.86ZM74.8363 39.22C74.1563 39.22 73.6029 39.0333 73.1763 38.66C72.7496 38.2733 72.5363 37.7933 72.5363 37.22C72.5363 36.6467 72.7496 36.1733 73.1763 35.8C73.6029 35.4133 74.1563 35.22 74.8363 35.22C75.5029 35.22 76.0496 35.4133 76.4763 35.8C76.9029 36.1733 77.1163 36.6467 77.1163 37.22C77.1163 37.7933 76.9029 38.2733 76.4763 38.66C76.0496 39.0333 75.5029 39.22 74.8363 39.22ZM72.6963 50C72.3763 50 72.2163 49.8733 72.2163 49.62V49.54C72.2163 49.38 72.3496 49.1333 72.6163 48.8C72.8829 48.4667 73.0163 48.1333 73.0163 47.8V44C73.0163 43.6533 72.8829 43.32 72.6163 43C72.3496 42.6667 72.2163 42.44 72.2163 42.32V42.24C72.2163 42.08 72.3696 41.9267 72.6763 41.78L75.6963 40.3C75.9763 40.18 76.1963 40.1667 76.3563 40.26C76.5163 40.3533 76.5963 40.5067 76.5963 40.72V47.8C76.5963 48.1333 76.7429 48.4667 77.0363 48.8C77.3429 49.1333 77.4963 49.38 77.4963 49.54V49.62C77.4963 49.8733 77.3296 50 76.9963 50H72.6963ZM82.5077 50.2C81.4943 50.2 80.6943 49.88 80.1077 49.24C79.5343 48.6 79.2477 47.6867 79.2477 46.5V41.76H78.4877C78.3543 41.76 78.241 41.72 78.1477 41.64C78.0677 41.5467 78.0277 41.4333 78.0277 41.3V40.86C78.0277 40.5533 78.181 40.4 78.4877 40.4H78.8677C79.481 40.4 80.0077 40.22 80.4477 39.86C80.8877 39.4867 81.1743 38.9933 81.3077 38.38C81.3743 38.0333 81.5543 37.86 81.8477 37.86H82.3077C82.6677 37.86 82.8477 38.0333 82.8477 38.38V40.4H84.9077C85.041 40.4 85.1477 40.4467 85.2277 40.54C85.321 40.62 85.3677 40.7267 85.3677 40.86V41.3C85.3677 41.4333 85.321 41.5467 85.2277 41.64C85.1477 41.72 85.041 41.76 84.9077 41.76H82.8477V46.56C82.8477 46.8933 82.9343 47.16 83.1077 47.36C83.281 47.5467 83.4943 47.64 83.7477 47.64C84.321 47.64 84.761 47.3933 85.0677 46.9C85.161 46.78 85.2677 46.7133 85.3877 46.7C85.5077 46.6733 85.6077 46.6933 85.6877 46.76C85.781 46.8267 85.8277 46.92 85.8277 47.04C85.8277 47.88 85.5277 48.62 84.9277 49.26C84.341 49.8867 83.5343 50.2 82.5077 50.2ZM95.9141 47.82C95.9541 48.14 96.0274 48.4 96.1341 48.6C96.2541 48.7867 96.3674 48.9067 96.4741 48.96C96.5941 49.0133 96.7007 49.08 96.7941 49.16C96.8874 49.24 96.9341 49.34 96.9341 49.46C96.9341 49.9 96.1807 50.12 94.6741 50.12C94.0607 50.12 93.6007 50.0467 93.2941 49.9C93.0007 49.7533 92.8141 49.5067 92.7341 49.16C92.2274 49.8533 91.3807 50.2 90.1941 50.2C89.0741 50.2 88.1607 49.94 87.4541 49.42C86.7607 48.9 86.4141 48.1467 86.4141 47.16C86.4141 46.2 86.7607 45.4533 87.4541 44.92C88.1474 44.3733 89.0007 44.1 90.0141 44.1C90.8007 44.1 91.4741 44.2667 92.0341 44.6V44.54C91.9007 43.22 91.7474 42.3267 91.5741 41.86C91.4141 41.3933 91.0941 41.16 90.6141 41.16C90.3074 41.16 90.0607 41.3 89.8741 41.58C89.6874 41.86 89.5474 42.1667 89.4541 42.5C89.3741 42.8333 89.2141 43.14 88.9741 43.42C88.7341 43.7 88.4141 43.84 88.0141 43.84C87.6007 43.84 87.2607 43.72 86.9941 43.48C86.7407 43.24 86.6141 42.9267 86.6141 42.54C86.6141 41.7667 87.0007 41.1867 87.7741 40.8C88.5474 40.4 89.4941 40.2 90.6141 40.2C91.9474 40.2 93.0474 40.5667 93.9141 41.3C94.7941 42.02 95.3141 43 95.4741 44.24L95.9141 47.82ZM91.2941 49.18C91.6007 49.18 91.8474 49.0333 92.0341 48.74C92.2341 48.4467 92.3341 48.1133 92.3341 47.74L92.2541 46.82C92.1207 45.7133 91.7074 45.16 91.0141 45.16C90.7074 45.16 90.4607 45.2867 90.2741 45.54C90.0874 45.78 89.9941 46.1067 89.9941 46.52C89.9941 47.2667 90.1074 47.9 90.3341 48.42C90.5741 48.9267 90.8941 49.18 91.2941 49.18ZM97.8097 50C97.503 50 97.3497 49.8733 97.3497 49.62V49.54C97.3497 49.38 97.4764 49.14 97.7297 48.82C97.9964 48.4867 98.1297 48.1533 98.1297 47.82V38.68C98.1297 38.3333 97.9964 38 97.7297 37.68C97.4764 37.3467 97.3497 37.1133 97.3497 36.98V36.9C97.3497 36.7533 97.4964 36.6 97.7897 36.44L100.81 34.96C101.09 34.84 101.31 34.8333 101.47 34.94C101.643 35.0333 101.73 35.18 101.73 35.38V47.82C101.73 48.1533 101.876 48.4867 102.17 48.82C102.463 49.14 102.61 49.38 102.61 49.54V49.62C102.61 49.8733 102.45 50 102.13 50H97.8097Z" fill="#7D2899"/>
<circle cx="75" cy="37" r="3" fill="#FFC13C"/>
<circle cx="58" cy="37" r="3" fill="#FFC13C"/>
</svg>
