<svg width="120" height="62" viewBox="0 0 120 62" fill="none" xmlns="http://www.w3.org/2000/svg">
<rect x="5" y="5" width="29" height="10" fill="#C6008E"/>
<path d="M5 32C5 23.7158 11.7158 17 20 17.0001L34 17.0001V25H21.5C16.8056 25 13 28.8056 13 33.5V35.5V45H5V32Z" fill="#7D2899"/>
<rect x="5" y="47" width="8" height="8" fill="#FFC13C"/>
<path d="M41.3 24C40.98 24 40.82 23.8733 40.82 23.62V23.54C40.82 23.38 40.9533 23.14 41.22 22.82C41.4867 22.4867 41.62 22.1533 41.62 21.82V11.98C41.62 11.6467 41.4867 11.32 41.22 11C40.9533 10.6667 40.82 10.42 40.82 10.26V10.18C40.82 9.92667 40.9733 9.8 41.28 9.8H50.68C50.8933 9.8 51.0467 9.85333 51.14 9.96C51.2467 10.0533 51.32 10.2133 51.36 10.44L51.84 12.96C51.8667 13.1333 51.8333 13.2733 51.74 13.38C51.6467 13.4867 51.5133 13.54 51.34 13.54H51.24C50.9867 13.54 50.7267 13.42 50.46 13.18C50.2067 12.9267 49.98 12.66 49.78 12.38C49.5933 12.0867 49.3467 11.82 49.04 11.58C48.7467 11.3267 48.44 11.2 48.12 11.2H46.2C45.5867 11.2 45.28 11.52 45.28 12.16V16.64H47.52C47.7333 16.64 47.9267 16.56 48.1 16.4C48.2867 16.2267 48.4333 16.04 48.54 15.84C48.6467 15.6267 48.7667 15.44 48.9 15.28C49.0467 15.1067 49.18 15.02 49.3 15.02H49.48C49.7333 15.02 49.86 15.1733 49.86 15.48V19.08C49.86 19.3867 49.7333 19.54 49.48 19.54H49.3C49.14 19.54 48.9733 19.42 48.8 19.18C48.64 18.9267 48.4533 18.6733 48.24 18.42C48.0267 18.1667 47.7867 18.04 47.52 18.04H45.28V21.82C45.28 22.1533 45.4267 22.4867 45.72 22.82C46.0267 23.14 46.18 23.38 46.18 23.54V23.62C46.18 23.8733 46.02 24 45.7 24H41.3ZM61.0156 21.82C61.0556 22.14 61.129 22.4 61.2356 22.6C61.3556 22.7867 61.469 22.9067 61.5756 22.96C61.6956 23.0133 61.8023 23.08 61.8956 23.16C61.989 23.24 62.0356 23.34 62.0356 23.46C62.0356 23.9 61.2823 24.12 59.7756 24.12C59.1623 24.12 58.7023 24.0467 58.3956 23.9C58.1023 23.7533 57.9156 23.5067 57.8356 23.16C57.329 23.8533 56.4823 24.2 55.2956 24.2C54.1756 24.2 53.2623 23.94 52.5556 23.42C51.8623 22.9 51.5156 22.1467 51.5156 21.16C51.5156 20.2 51.8623 19.4533 52.5556 18.92C53.249 18.3733 54.1023 18.1 55.1156 18.1C55.9023 18.1 56.5756 18.2667 57.1356 18.6V18.54C57.0023 17.22 56.849 16.3267 56.6756 15.86C56.5156 15.3933 56.1956 15.16 55.7156 15.16C55.409 15.16 55.1623 15.3 54.9756 15.58C54.789 15.86 54.649 16.1667 54.5556 16.5C54.4756 16.8333 54.3156 17.14 54.0756 17.42C53.8356 17.7 53.5156 17.84 53.1156 17.84C52.7023 17.84 52.3623 17.72 52.0956 17.48C51.8423 17.24 51.7156 16.9267 51.7156 16.54C51.7156 15.7667 52.1023 15.1867 52.8756 14.8C53.649 14.4 54.5956 14.2 55.7156 14.2C57.049 14.2 58.149 14.5667 59.0156 15.3C59.8956 16.02 60.4156 17 60.5756 18.24L61.0156 21.82ZM56.3956 23.18C56.7023 23.18 56.949 23.0333 57.1356 22.74C57.3356 22.4467 57.4356 22.1133 57.4356 21.74L57.3556 20.82C57.2223 19.7133 56.809 19.16 56.1156 19.16C55.809 19.16 55.5623 19.2867 55.3756 19.54C55.189 19.78 55.0956 20.1067 55.0956 20.52C55.0956 21.2667 55.209 21.9 55.4356 22.42C55.6756 22.9267 55.9956 23.18 56.3956 23.18ZM72.515 21.82C72.515 22.1533 72.6483 22.4867 72.915 22.82C73.1817 23.14 73.315 23.38 73.315 23.54V23.62C73.315 23.8733 73.1617 24 72.855 24H69.995C69.6483 24 69.475 23.8333 69.475 23.5V23.32C68.8483 23.9067 68.035 24.2 67.035 24.2C65.7417 24.2 64.6283 23.76 63.695 22.88C62.775 21.9867 62.315 20.76 62.315 19.2C62.315 17.7467 62.7817 16.5533 63.715 15.62C64.6483 14.6733 65.7617 14.2 67.055 14.2C67.8683 14.2 68.555 14.3867 69.115 14.76V12.1C69.115 11.8333 69.0283 11.6067 68.855 11.42C68.6817 11.22 68.5017 11.0533 68.315 10.92C68.1417 10.7733 68.055 10.62 68.055 10.46V10.4C68.055 10.1467 68.2083 9.97333 68.515 9.88L71.635 8.94C72.2217 8.75333 72.515 8.91333 72.515 9.42V21.82ZM67.835 23.22C68.195 23.2333 68.495 23.0867 68.735 22.78C68.9883 22.4733 69.115 22.06 69.115 21.54V17.68C69.115 17.04 68.9283 16.4667 68.555 15.96C68.195 15.44 67.7817 15.18 67.315 15.18C66.3283 15.18 65.8017 16 65.735 17.64C65.7083 18.2667 65.7617 18.9933 65.895 19.82C66.0417 20.6467 66.2817 21.42 66.615 22.14C66.9617 22.8467 67.3683 23.2067 67.835 23.22ZM83.6719 21.82C83.7119 22.14 83.7852 22.4 83.8919 22.6C84.0119 22.7867 84.1252 22.9067 84.2319 22.96C84.3519 23.0133 84.4585 23.08 84.5519 23.16C84.6452 23.24 84.6919 23.34 84.6919 23.46C84.6919 23.9 83.9385 24.12 82.4319 24.12C81.8185 24.12 81.3585 24.0467 81.0519 23.9C80.7585 23.7533 80.5719 23.5067 80.4919 23.16C79.9852 23.8533 79.1385 24.2 77.9519 24.2C76.8319 24.2 75.9185 23.94 75.2119 23.42C74.5185 22.9 74.1719 22.1467 74.1719 21.16C74.1719 20.2 74.5185 19.4533 75.2119 18.92C75.9052 18.3733 76.7585 18.1 77.7719 18.1C78.5585 18.1 79.2319 18.2667 79.7919 18.6V18.54C79.6585 17.22 79.5052 16.3267 79.3319 15.86C79.1719 15.3933 78.8519 15.16 78.3719 15.16C78.0652 15.16 77.8185 15.3 77.6319 15.58C77.4452 15.86 77.3052 16.1667 77.2119 16.5C77.1319 16.8333 76.9719 17.14 76.7319 17.42C76.4919 17.7 76.1719 17.84 75.7719 17.84C75.3585 17.84 75.0185 17.72 74.7519 17.48C74.4985 17.24 74.3719 16.9267 74.3719 16.54C74.3719 15.7667 74.7585 15.1867 75.5319 14.8C76.3052 14.4 77.2519 14.2 78.3719 14.2C79.7052 14.2 80.8052 14.5667 81.6719 15.3C82.5519 16.02 83.0719 17 83.2319 18.24L83.6719 21.82ZM79.0519 23.18C79.3585 23.18 79.6052 23.0333 79.7919 22.74C79.9919 22.4467 80.0919 22.1133 80.0919 21.74L80.0119 20.82C79.8785 19.7133 79.4652 19.16 78.7719 19.16C78.4652 19.16 78.2185 19.2867 78.0319 19.54C77.8452 19.78 77.7519 20.1067 77.7519 20.52C77.7519 21.2667 77.8652 21.9 78.0919 22.42C78.3319 22.9267 78.6519 23.18 79.0519 23.18ZM87.8675 13.22C87.1875 13.22 86.6342 13.0333 86.2075 12.66C85.7808 12.2733 85.5675 11.7933 85.5675 11.22C85.5675 10.6467 85.7808 10.1733 86.2075 9.8C86.6342 9.41333 87.1875 9.22 87.8675 9.22C88.5342 9.22 89.0808 9.41333 89.5075 9.8C89.9342 10.1733 90.1475 10.6467 90.1475 11.22C90.1475 11.7933 89.9342 12.2733 89.5075 12.66C89.0808 13.0333 88.5342 13.22 87.8675 13.22ZM85.7275 24C85.4075 24 85.2475 23.8733 85.2475 23.62V23.54C85.2475 23.38 85.3808 23.1333 85.6475 22.8C85.9142 22.4667 86.0475 22.1333 86.0475 21.8V18C86.0475 17.6533 85.9142 17.32 85.6475 17C85.3808 16.6667 85.2475 16.44 85.2475 16.32V16.24C85.2475 16.08 85.4008 15.9267 85.7075 15.78L88.7275 14.3C89.0075 14.18 89.2275 14.1667 89.3875 14.26C89.5475 14.3533 89.6275 14.5067 89.6275 14.72V21.8C89.6275 22.1333 89.7742 22.4667 90.0675 22.8C90.3742 23.1333 90.5275 23.38 90.5275 23.54V23.62C90.5275 23.8733 90.3608 24 90.0275 24H85.7275ZM102.239 21.82C102.266 22.1533 102.392 22.4867 102.619 22.82C102.846 23.14 102.959 23.3867 102.959 23.56V23.64C102.959 23.8933 102.799 24.02 102.479 24.02H98.4789C98.1589 24.02 97.9989 23.8933 97.9989 23.64V23.56C97.9989 23.4 98.1256 23.1533 98.3789 22.82C98.6322 22.4867 98.7456 22.1533 98.7189 21.82L98.5189 18.24C98.4656 17.2533 98.3322 16.5533 98.1189 16.14C97.9189 15.7267 97.5922 15.52 97.1389 15.52C96.7122 15.52 96.3856 15.6933 96.1589 16.04C95.9456 16.3867 95.8389 16.86 95.8389 17.46V21.82C95.8389 22.1533 95.9856 22.4867 96.2789 22.82C96.5722 23.1533 96.7189 23.4 96.7189 23.56V23.64C96.7189 23.8933 96.5589 24.02 96.2389 24.02H91.9189C91.5989 24.02 91.4389 23.8933 91.4389 23.64V23.56C91.4389 23.4 91.5856 23.1533 91.8789 22.82C92.1722 22.4867 92.3189 22.1533 92.3189 21.82V17.88C92.3189 17.6 92.2322 17.3667 92.0589 17.18C91.8856 16.98 91.7056 16.8133 91.5189 16.68C91.3456 16.5333 91.2589 16.38 91.2589 16.22V16.16C91.2589 15.9867 91.4189 15.82 91.7389 15.66L94.5389 14.28C94.7922 14.1733 94.9789 14.1733 95.0989 14.28C95.2322 14.3733 95.2989 14.5333 95.2989 14.76V15.7C95.8589 14.7 96.8122 14.2 98.1589 14.2C99.1589 14.2 100.019 14.5267 100.739 15.18C101.459 15.8333 101.872 16.8933 101.979 18.36L102.239 21.82Z" fill="#C6008E"/>
<path d="M41.3 50C40.98 50 40.82 49.8733 40.82 49.62V49.54C40.82 49.38 40.9533 49.14 41.22 48.82C41.4867 48.4867 41.62 48.1533 41.62 47.82V37.98C41.62 37.6467 41.4867 37.32 41.22 37C40.9533 36.6667 40.82 36.42 40.82 36.26V36.18C40.82 35.9267 40.98 35.8 41.3 35.8H46.02C48.8067 35.8 50.9733 36.46 52.52 37.78C54.08 39.1 54.86 40.8333 54.86 42.98C54.86 45.0733 54.14 46.7667 52.7 48.06C51.2733 49.3533 49.38 50 47.02 50H41.3ZM46.94 48.6H47.74C48.7267 48.6 49.5267 48.26 50.14 47.58C50.7533 46.9 51.06 45.9267 51.06 44.66C51.06 43.3667 50.86 42.1533 50.46 41.02C50.06 39.8733 49.4933 38.9533 48.76 38.26C48.0267 37.5533 47.2133 37.2 46.32 37.2H46.1C45.5 37.2 45.2 37.52 45.2 38.16V46.54C45.2 47.1933 45.3533 47.7 45.66 48.06C45.9667 48.42 46.3933 48.6 46.94 48.6ZM58.5511 39.22C57.8711 39.22 57.3178 39.0333 56.8911 38.66C56.4644 38.2733 56.2511 37.7933 56.2511 37.22C56.2511 36.6467 56.4644 36.1733 56.8911 35.8C57.3178 35.4133 57.8711 35.22 58.5511 35.22C59.2178 35.22 59.7644 35.4133 60.1911 35.8C60.6178 36.1733 60.8311 36.6467 60.8311 37.22C60.8311 37.7933 60.6178 38.2733 60.1911 38.66C59.7644 39.0333 59.2178 39.22 58.5511 39.22ZM56.4111 50C56.0911 50 55.9311 49.8733 55.9311 49.62V49.54C55.9311 49.38 56.0644 49.1333 56.3311 48.8C56.5978 48.4667 56.7311 48.1333 56.7311 47.8V44C56.7311 43.6533 56.5978 43.32 56.3311 43C56.0644 42.6667 55.9311 42.44 55.9311 42.32V42.24C55.9311 42.08 56.0844 41.9267 56.3911 41.78L59.4111 40.3C59.6911 40.18 59.9111 40.1667 60.0711 40.26C60.2311 40.3533 60.3111 40.5067 60.3111 40.72V47.8C60.3111 48.1333 60.4578 48.4667 60.7511 48.8C61.0578 49.1333 61.2111 49.38 61.2111 49.54V49.62C61.2111 49.8733 61.0444 50 60.7111 50H56.4111ZM70.8425 40.4C71.4692 40.4 71.8758 40.4533 72.0625 40.56C72.2492 40.6533 72.3292 40.82 72.3025 41.06C72.2892 41.2467 72.2225 41.4 72.1025 41.52C71.9958 41.6267 71.8825 41.7 71.7625 41.74C71.6558 41.7667 71.4892 41.8067 71.2625 41.86C71.0492 41.9 70.8958 41.9333 70.8025 41.96C71.4558 42.7067 71.7825 43.5333 71.7825 44.44C71.7825 46 71.0625 47.1467 69.6225 47.88C70.4758 48.0667 71.0825 48.34 71.4425 48.7C71.8025 49.0467 71.9825 49.4867 71.9825 50.02C71.9825 50.8067 71.4825 51.4467 70.4825 51.94C69.4825 52.4467 68.2425 52.7 66.7625 52.7C65.3092 52.7 64.1558 52.4733 63.3025 52.02C62.4625 51.5667 62.0425 50.92 62.0425 50.08C62.0425 49.7333 62.1625 49.4267 62.4025 49.16C62.6425 48.8933 62.9825 48.76 63.4225 48.76C63.8225 48.76 64.1625 48.9133 64.4425 49.22C64.7358 49.5267 64.9492 49.8667 65.0825 50.24C65.2292 50.6133 65.4425 50.9533 65.7225 51.26C66.0158 51.58 66.3692 51.74 66.7825 51.74C67.3025 51.7533 67.7092 51.6 68.0025 51.28C68.2958 50.9733 68.4425 50.5667 68.4425 50.06C68.4425 49.14 68.1625 48.6 67.6025 48.44C67.3092 48.4667 67.0692 48.48 66.8825 48.48C65.4692 48.48 64.3025 48.1067 63.3825 47.36C62.4758 46.6133 62.0225 45.6467 62.0225 44.46C62.0225 43.1933 62.4758 42.1667 63.3825 41.38C64.3025 40.5933 65.4825 40.2 66.9225 40.2C67.2958 40.2 67.8825 40.2333 68.6825 40.3C69.4825 40.3667 70.2025 40.4 70.8425 40.4ZM65.3625 42.86C65.3625 43.9133 65.5692 44.9467 65.9825 45.96C66.3958 46.9733 66.8625 47.48 67.3825 47.48C67.7158 47.48 67.9758 47.3333 68.1625 47.04C68.3625 46.7333 68.4625 46.32 68.4625 45.8C68.4625 44.8533 68.2558 43.8467 67.8425 42.78C67.4292 41.7133 66.9492 41.18 66.4025 41.18C66.0825 41.18 65.8292 41.3267 65.6425 41.62C65.4558 41.9133 65.3625 42.3267 65.3625 42.86ZM75.8363 39.22C75.1563 39.22 74.6029 39.0333 74.1763 38.66C73.7496 38.2733 73.5363 37.7933 73.5363 37.22C73.5363 36.6467 73.7496 36.1733 74.1763 35.8C74.6029 35.4133 75.1563 35.22 75.8363 35.22C76.5029 35.22 77.0496 35.4133 77.4763 35.8C77.9029 36.1733 78.1163 36.6467 78.1163 37.22C78.1163 37.7933 77.9029 38.2733 77.4763 38.66C77.0496 39.0333 76.5029 39.22 75.8363 39.22ZM73.6963 50C73.3763 50 73.2163 49.8733 73.2163 49.62V49.54C73.2163 49.38 73.3496 49.1333 73.6163 48.8C73.8829 48.4667 74.0163 48.1333 74.0163 47.8V44C74.0163 43.6533 73.8829 43.32 73.6163 43C73.3496 42.6667 73.2163 42.44 73.2163 42.32V42.24C73.2163 42.08 73.3696 41.9267 73.6763 41.78L76.6963 40.3C76.9763 40.18 77.1963 40.1667 77.3563 40.26C77.5163 40.3533 77.5963 40.5067 77.5963 40.72V47.8C77.5963 48.1333 77.7429 48.4667 78.0363 48.8C78.3429 49.1333 78.4963 49.38 78.4963 49.54V49.62C78.4963 49.8733 78.3296 50 77.9963 50H73.6963ZM83.5077 50.2C82.4943 50.2 81.6943 49.88 81.1077 49.24C80.5343 48.6 80.2477 47.6867 80.2477 46.5V41.76H79.4877C79.3543 41.76 79.241 41.72 79.1477 41.64C79.0677 41.5467 79.0277 41.4333 79.0277 41.3V40.86C79.0277 40.5533 79.181 40.4 79.4877 40.4H79.8677C80.481 40.4 81.0077 40.22 81.4477 39.86C81.8877 39.4867 82.1743 38.9933 82.3077 38.38C82.3743 38.0333 82.5543 37.86 82.8477 37.86H83.3077C83.6677 37.86 83.8477 38.0333 83.8477 38.38V40.4H85.9077C86.041 40.4 86.1477 40.4467 86.2277 40.54C86.321 40.62 86.3677 40.7267 86.3677 40.86V41.3C86.3677 41.4333 86.321 41.5467 86.2277 41.64C86.1477 41.72 86.041 41.76 85.9077 41.76H83.8477V46.56C83.8477 46.8933 83.9343 47.16 84.1077 47.36C84.281 47.5467 84.4943 47.64 84.7477 47.64C85.321 47.64 85.761 47.3933 86.0677 46.9C86.161 46.78 86.2677 46.7133 86.3877 46.7C86.5077 46.6733 86.6077 46.6933 86.6877 46.76C86.781 46.8267 86.8277 46.92 86.8277 47.04C86.8277 47.88 86.5277 48.62 85.9277 49.26C85.341 49.8867 84.5343 50.2 83.5077 50.2ZM96.9141 47.82C96.9541 48.14 97.0274 48.4 97.1341 48.6C97.2541 48.7867 97.3674 48.9067 97.4741 48.96C97.5941 49.0133 97.7007 49.08 97.7941 49.16C97.8874 49.24 97.9341 49.34 97.9341 49.46C97.9341 49.9 97.1807 50.12 95.6741 50.12C95.0607 50.12 94.6007 50.0467 94.2941 49.9C94.0007 49.7533 93.8141 49.5067 93.7341 49.16C93.2274 49.8533 92.3807 50.2 91.1941 50.2C90.0741 50.2 89.1607 49.94 88.4541 49.42C87.7607 48.9 87.4141 48.1467 87.4141 47.16C87.4141 46.2 87.7607 45.4533 88.4541 44.92C89.1474 44.3733 90.0007 44.1 91.0141 44.1C91.8007 44.1 92.4741 44.2667 93.0341 44.6V44.54C92.9007 43.22 92.7474 42.3267 92.5741 41.86C92.4141 41.3933 92.0941 41.16 91.6141 41.16C91.3074 41.16 91.0607 41.3 90.8741 41.58C90.6874 41.86 90.5474 42.1667 90.4541 42.5C90.3741 42.8333 90.2141 43.14 89.9741 43.42C89.7341 43.7 89.4141 43.84 89.0141 43.84C88.6007 43.84 88.2607 43.72 87.9941 43.48C87.7407 43.24 87.6141 42.9267 87.6141 42.54C87.6141 41.7667 88.0007 41.1867 88.7741 40.8C89.5474 40.4 90.4941 40.2 91.6141 40.2C92.9474 40.2 94.0474 40.5667 94.9141 41.3C95.7941 42.02 96.3141 43 96.4741 44.24L96.9141 47.82ZM92.2941 49.18C92.6007 49.18 92.8474 49.0333 93.0341 48.74C93.2341 48.4467 93.3341 48.1133 93.3341 47.74L93.2541 46.82C93.1207 45.7133 92.7074 45.16 92.0141 45.16C91.7074 45.16 91.4607 45.2867 91.2741 45.54C91.0874 45.78 90.9941 46.1067 90.9941 46.52C90.9941 47.2667 91.1074 47.9 91.3341 48.42C91.5741 48.9267 91.8941 49.18 92.2941 49.18ZM98.8097 50C98.503 50 98.3497 49.8733 98.3497 49.62V49.54C98.3497 49.38 98.4764 49.14 98.7297 48.82C98.9964 48.4867 99.1297 48.1533 99.1297 47.82V38.68C99.1297 38.3333 98.9964 38 98.7297 37.68C98.4764 37.3467 98.3497 37.1133 98.3497 36.98V36.9C98.3497 36.7533 98.4964 36.6 98.7897 36.44L101.81 34.96C102.09 34.84 102.31 34.8333 102.47 34.94C102.643 35.0333 102.73 35.18 102.73 35.38V47.82C102.73 48.1533 102.876 48.4867 103.17 48.82C103.463 49.14 103.61 49.38 103.61 49.54V49.62C103.61 49.8733 103.45 50 103.13 50H98.8097ZM108.844 50.18C107.564 50.18 106.511 49.9667 105.684 49.54C104.858 49.1 104.444 48.5333 104.444 47.84C104.444 47.4133 104.571 47.0933 104.824 46.88C105.091 46.6667 105.438 46.56 105.864 46.56C106.318 46.56 106.678 46.7067 106.944 47C107.211 47.28 107.391 47.5933 107.484 47.94C107.578 48.2733 107.738 48.5867 107.964 48.88C108.191 49.16 108.484 49.3 108.844 49.3C109.564 49.3 109.924 48.9333 109.924 48.2C109.924 47.72 109.738 47.34 109.364 47.06C109.004 46.78 108.564 46.5667 108.044 46.42C107.524 46.2733 107.004 46.1067 106.484 45.92C105.978 45.7333 105.538 45.42 105.164 44.98C104.804 44.54 104.624 43.96 104.624 43.24C104.624 42.3467 105.018 41.62 105.804 41.06C106.591 40.4867 107.604 40.2 108.844 40.2C110.084 40.2 111.091 40.4333 111.864 40.9C112.651 41.3667 113.044 41.9333 113.044 42.6C113.044 42.9467 112.911 43.24 112.644 43.48C112.391 43.7067 112.078 43.82 111.704 43.82C111.264 43.82 110.918 43.68 110.664 43.4C110.411 43.12 110.238 42.8133 110.144 42.48C110.064 42.1333 109.931 41.82 109.744 41.54C109.571 41.26 109.331 41.12 109.024 41.12C108.731 41.12 108.498 41.2333 108.324 41.46C108.164 41.6867 108.084 41.9533 108.084 42.26C108.084 42.7533 108.258 43.1533 108.604 43.46C108.964 43.7667 109.391 44 109.884 44.16C110.391 44.32 110.891 44.4933 111.384 44.68C111.891 44.8667 112.318 45.1733 112.664 45.6C113.024 46.0133 113.204 46.56 113.204 47.24C113.204 48.0933 112.811 48.8 112.024 49.36C111.251 49.9067 110.191 50.18 108.844 50.18Z" fill="#7D2899"/>
<circle cx="76" cy="37" r="3" fill="#FFC13C"/>
<circle cx="58" cy="37" r="3" fill="#FFC13C"/>
</svg>
