<?xml version="1.0" standalone="no"?>
<!DOCTYPE svg PUBLIC "-//W3C//DTD SVG 20010904//EN"
 "http://www.w3.org/TR/2001/REC-SVG-20010904/DTD/svg10.dtd">
<svg version="1.0" xmlns="http://www.w3.org/2000/svg"
 width="500.000000pt" height="500.000000pt" viewBox="0 0 500.000000 500.000000"
 preserveAspectRatio="xMidYMid meet">

<g transform="translate(0.000000,500.000000) scale(0.100000,-0.100000)"
fill="#000000" stroke="none">
<path d="M2236 3556 c8 -31 -12 -43 -37 -20 -18 16 -19 16 -19 -4 0 -12 11
-29 25 -38 17 -11 25 -25 25 -44 0 -19 10 -37 30 -53 17 -14 30 -35 30 -47 0
-12 5 -18 10 -15 6 3 10 13 10 22 0 9 8 25 17 35 13 14 14 21 5 30 -19 19 -14
38 18 75 30 34 38 53 21 53 -5 0 -14 -7 -21 -15 -16 -19 -30 -10 -30 21 0 26
-17 33 -26 9 -4 -8 -12 -15 -19 -15 -7 0 -15 7 -19 15 -9 25 -27 17 -20 -9z"/>
<path d="M2338 3349 c-14 -15 -14 -18 -2 -23 8 -3 14 -1 14 4 0 6 5 10 10 10
6 0 10 -9 10 -19 0 -17 -5 -19 -35 -14 -24 4 -35 2 -35 -7 0 -7 7 -10 15 -6
20 7 32 -23 14 -35 -11 -7 -9 -10 9 -15 24 -7 30 -29 10 -37 -7 -3 -3 -6 10
-6 13 -1 20 3 17 9 -3 6 0 10 8 10 11 0 13 -7 10 -22 -6 -23 -6 -23 14 2 19
22 23 23 39 10 10 -8 6 1 -9 21 -15 20 -27 39 -27 42 0 4 -12 26 -27 50 -26
41 -29 42 -45 26z m32 -79 c0 -5 -4 -10 -10 -10 -5 0 -10 5 -10 10 0 6 5 10
10 10 6 0 10 -4 10 -10z m40 -31 c0 -6 -4 -7 -10 -4 -5 3 -10 11 -10 16 0 6 5
7 10 4 6 -3 10 -11 10 -16z"/>
<path d="M2375 3150 c-19 -7 -19 -7 2 -14 25 -8 31 -45 23 -137 -4 -39 -2 -60
8 -68 11 -11 10 -15 -3 -25 -13 -9 -14 -17 -5 -43 6 -17 18 -34 26 -37 16 -6
19 -36 4 -36 -5 0 -10 -4 -10 -10 0 -5 7 -10 15 -10 8 0 15 -10 16 -22 9 -233
8 -305 -2 -337 -15 -46 -23 -51 -89 -51 -30 -1 -73 -5 -95 -9 l-40 -7 54 -13
c40 -10 89 -12 180 -7 198 11 299 20 307 29 5 4 7 61 6 125 -1 64 2 155 7 201
8 80 8 86 -13 102 -18 16 -19 18 -3 19 9 0 17 -4 17 -10 0 -5 6 -10 14 -10 9
0 16 -13 19 -32 2 -18 5 -3 5 33 2 79 -7 137 -19 118 -6 -10 -11 -10 -23 0
-18 15 -22 51 -6 51 6 0 10 5 10 12 0 6 -3 8 -6 5 -4 -3 -15 -2 -26 4 -14 7
-17 16 -12 32 5 18 4 20 -7 10 -20 -20 -50 -15 -56 7 -6 22 -19 26 -25 8 -6
-17 -38 -2 -38 18 0 25 -31 43 -61 37 -21 -4 -28 0 -33 15 -4 10 -4 27 0 36 8
21 -5 21 -22 -1 -13 -17 -15 -17 -27 -1 -12 15 -14 15 -25 0 -10 -16 -13 -15
-29 4 -13 14 -25 19 -38 14z m80 -50 c5 -8 11 -7 21 1 11 9 14 8 14 -8 0 -15
-7 -19 -35 -20 -22 -1 -35 4 -35 11 0 24 24 35 35 16z m76 -52 l0 -23 11 23
c6 12 16 22 23 22 16 0 36 -46 29 -65 -8 -21 -51 -19 -63 3 -6 9 -11 11 -11 5
0 -7 -7 -13 -15 -13 -15 0 -22 50 -8 63 14 15 33 6 34 -15z m-61 -17 c0 -14
-6 -17 -25 -13 -14 2 -25 11 -25 18 0 8 10 14 25 14 18 0 25 -5 25 -19z m-15
-51 c0 -18 -6 -26 -22 -28 -18 -3 -23 1 -23 21 0 28 9 39 30 35 9 -2 15 -14
15 -28z m195 5 c0 -28 -35 -69 -50 -60 -17 10 -11 44 10 65 27 27 40 25 40 -5z
m-160 -6 c0 -5 -4 -9 -10 -9 -5 0 -10 7 -10 16 0 8 5 12 10 9 6 -3 10 -10 10
-16z m208 -1 c-6 -18 -28 -21 -28 -4 0 9 7 16 16 16 9 0 14 -5 12 -12z m-132
-12 c25 -20 8 -50 -31 -54 -45 -6 -63 41 -22 58 30 12 31 12 53 -4z m169 -16
c3 -11 3 -25 0 -30 -11 -18 -34 8 -28 30 7 26 20 25 28 0z m-256 -32 c-3 -58
-8 -68 -40 -68 -25 0 -29 4 -29 26 0 17 6 28 20 31 11 3 17 10 14 15 -6 10 12
28 29 28 4 0 7 -15 6 -32z m211 -9 c0 -24 -4 -30 -17 -27 -22 4 -30 47 -12 59
20 12 29 1 29 -32z m-76 -14 c-4 -8 -10 -15 -15 -15 -5 0 -9 7 -9 15 0 8 7 15
15 15 9 0 12 -6 9 -15z m-39 -5 c10 -16 -16 -43 -28 -31 -11 11 -2 41 12 41 5
0 13 -5 16 -10z m145 0 c0 -5 -4 -10 -10 -10 -5 0 -10 5 -10 10 0 6 5 10 10
10 6 0 10 -4 10 -10z m30 -21 c0 -10 -4 -19 -10 -19 -5 0 -10 12 -10 26 0 14
4 23 10 19 6 -3 10 -15 10 -26z m-220 -4 c0 -25 -23 -35 -35 -15 -10 16 2 40
20 40 9 0 15 -9 15 -25z m140 -1 c11 -12 11 -18 -2 -31 -20 -20 -38 -9 -38 23
0 27 21 32 40 8z m130 -26 c0 -40 -24 -32 -28 10 -3 25 0 31 12 26 10 -4 16
-18 16 -36z m-184 -5 c19 -26 17 -33 -10 -33 -24 0 -41 23 -30 41 8 14 26 11
40 -8z m112 5 c13 -13 16 -48 4 -48 -14 0 -32 23 -32 42 0 21 11 23 28 6z
m-248 -30 c0 -26 -24 -18 -28 10 -3 16 1 20 12 16 9 -3 16 -15 16 -26z m80 6
c0 -14 -4 -23 -10 -19 -5 3 -10 15 -10 26 0 10 5 19 10 19 6 0 10 -12 10 -26z
m-32 -7 c2 -12 -3 -17 -17 -17 -15 0 -21 6 -21 21 0 25 33 22 38 -4z m137 -47
c-8 -35 29 -84 45 -60 5 8 10 10 10 5 0 -6 -5 -16 -12 -23 -9 -9 -9 -15 0 -24
20 -20 15 -166 -8 -217 -11 -24 -20 -49 -20 -56 0 -16 -17 -23 -46 -17 -18 3
-22 11 -22 36 1 43 -19 246 -27 279 -4 15 -11 27 -16 27 -5 0 -8 3 -7 8 0 4
-2 15 -7 25 -4 10 -5 20 -2 24 8 7 66 20 95 20 20 0 22 -3 17 -27z m-147 12
c7 -5 10 -16 6 -25 -3 -10 -1 -17 6 -17 6 0 9 -3 6 -8 -2 -4 5 -50 17 -102 11
-52 21 -129 21 -170 l1 -75 -54 -3 c-52 -3 -53 -3 -45 20 4 13 9 90 11 171 2
114 -1 146 -10 141 -9 -5 -9 -3 1 7 15 17 16 30 0 27 -6 -2 -13 4 -15 14 -4
14 5 20 37 27 3 0 11 -3 18 -7z m226 -359 c-5 -20 -14 -38 -21 -40 -9 -3 -10
4 -2 29 5 18 9 46 10 63 0 29 1 29 11 7 8 -15 8 -35 2 -59z"/>
<path d="M2823 2657 c2 -27 10 -54 17 -60 10 -10 11 -2 6 38 -9 67 -30 88 -23
22z"/>
<path d="M2200 2225 c-25 -8 -60 -29 -78 -48 -30 -30 -34 -41 -34 -89 -1 -64
12 -92 52 -113 45 -23 44 -32 -5 -54 -37 -17 -50 -29 -67 -67 -18 -41 -19 -52
-8 -88 16 -53 66 -101 121 -116 56 -16 732 -14 795 1 26 7 56 25 80 50 36 37
39 44 39 98 0 68 -9 82 -78 121 l-48 28 34 21 c109 67 75 217 -57 256 -70 21
-679 20 -746 0z m418 -11 c22 -15 22 -18 22 -274 0 -287 -1 -290 -65 -290 -62
0 -65 13 -65 292 0 235 1 249 20 268 24 24 57 26 88 4z m-219 0 l31 -6 0 -264
c0 -144 -4 -265 -9 -268 -20 -13 -119 -17 -156 -7 -22 6 -55 23 -74 39 -31 25
-35 34 -35 79 -1 59 17 98 53 113 14 6 39 19 55 29 l29 19 -41 21 c-57 29 -82
65 -82 117 0 92 107 152 229 128z m528 -30 c80 -61 67 -166 -28 -214 l-42 -22
39 -24 c22 -13 44 -24 50 -24 16 0 54 -74 54 -104 0 -41 -25 -82 -67 -108 -31
-18 -52 -23 -108 -23 -114 0 -105 -25 -105 279 l0 265 23 5 c12 2 51 3 86 1
49 -4 71 -10 98 -31z"/>
</g>
</svg>
